<?xml version="1.0" encoding="UTF-8"?>
<svg width="200" height="200" viewBox="0 0 200 200" fill="none" xmlns="http://www.w3.org/2000/svg">
  <path d="M160 100c0-3.3-.3-6.6-.8-9.8l21.3-16.7c1.9-1.5 2.4-4.2 1.2-6.3l-20-34.6c-1.2-2.1-3.8-3-6-2.1l-25.1 10.1c-5.2-4-10.8-7.3-17-9.7L109.8 5c-.3-2.5-2.4-4.4-4.9-4.4h-40c-2.5 0-4.6 1.9-4.9 4.4l-3.8 25.9c-6.1 2.4-11.8 5.7-17 9.7L14.1 30.5c-2.2-.9-4.8 0-6 2.1l-20 34.6c-1.2 2.1-.7 4.8 1.2 6.3l21.3 16.7c-.5 3.2-.8 6.5-.8 9.8s.3 6.6.8 9.8L-10.7 126c-1.9 1.5-2.4 4.2-1.2 6.3l20 34.6c1.2 2.1 3.8 3 6 2.1l25.1-10.1c5.2 4 10.8 7.3 17 9.7l3.8 25.9c.3 2.5 2.4 4.4 4.9 4.4h40c2.5 0 4.6-1.9 4.9-4.4l3.8-25.9c6.1-2.4 11.8-5.7 17-9.7l25.1 10.1c2.2.9 4.8 0 6-2.1l20-34.6c1.2-2.1.7-4.8-1.2-6.3l-21.3-16.7c.5-3.2.8-6.5.8-9.8zM100 135c-19.3 0-35-15.7-35-35s15.7-35 35-35 35 15.7 35 35-15.7 35-35 35z" fill="#303a4d"/>
</svg> 