<?xml version="1.0" encoding="UTF-8"?>
<svg width="200" height="200" viewBox="0 0 200 200" fill="none" xmlns="http://www.w3.org/2000/svg">
  <path d="M150 90c-8.3 0-15.7 3.7-20.7 9.5-5-5.8-12.4-9.5-20.7-9.5-8.3 0-15.7 3.7-20.7 9.5-5-5.8-12.4-9.5-20.7-9.5-15.2 0-27.5 12.3-27.5 27.5V140c0 33.1 26.9 60 60 60s60-26.9 60-60v-22.5c0-15.2-12.3-27.5-27.5-27.5z" fill="#303a4d"/>
  <path d="M60 80c11 0 20-9 20-20s-9-20-20-20-20 9-20 20 9 20 20 20zM108.7 80c11 0 20-9 20-20s-9-20-20-20-20 9-20 20 9 20 20 20zM157.3 80c11 0 20-9 20-20s-9-20-20-20-20 9-20 20 9 20 20 20z" fill="#303a4d"/>
</svg> 